<?xml version="1.0" encoding="utf-8"?>
<!-- Generator: Adobe Illustrator 25.2.0, SVG Export Plug-In . SVG Version: 6.00 Build 0)  -->
<svg version="1.1" id="Capa_1" xmlns="http://www.w3.org/2000/svg" xmlns:xlink="http://www.w3.org/1999/xlink" x="0px" y="0px"
	 viewBox="0 0 595.3 553" style="enable-background:new 0 0 595.3 553;" xml:space="preserve">
<style type="text/css">
	.st0{fill:url(#SVGID_1_);}
	.st1{fill:#FFFFFF;}
</style>
<g>
	
		<linearGradient id="SVGID_1_" gradientUnits="userSpaceOnUse" x1="487.8824" y1="467.3824" x2="107.3176" y2="86.8176" gradientTransform="matrix(1 0 0 -1 0 554.11)">
		<stop  offset="0" style="stop-color:#009D47"/>
		<stop  offset="1" style="stop-color:#00954C"/>
	</linearGradient>
	<circle class="st0" cx="297.6" cy="277" r="269.1"/>
	<path class="st1" d="M401.4,384.6c-3,5.2-8.5,8.1-14.1,8.1c-2.8,0-5.6-0.7-8.2-2.2c-42.8-25-92.3-29.1-126.3-28
		c-37.6,1.1-65.2,8.6-65.5,8.7c-8.7,2.4-17.6-2.7-20-11.4c-2.4-8.7,2.7-17.6,11.4-20c1.2-0.3,30.9-8.4,72.2-9.8
		c24.3-0.8,47.7,0.9,69.6,5c27.7,5.2,52.9,14.5,75,27.4C403.3,366.8,405.9,376.8,401.4,384.6z"/>
	<path class="st1" d="M431.7,321.7c-3.6,6.1-10,9.6-16.7,9.6c-3.3,0-6.7-0.9-9.7-2.6c-50.7-29.6-109.3-34.4-149.6-33.2
		c-44.6,1.4-77.3,10.2-77.6,10.2c-10.3,2.8-20.9-3.2-23.7-13.5s3.2-20.9,13.5-23.7c1.5-0.4,36.7-10,85.6-11.6
		c28.8-0.9,56.6,1.1,82.4,6c32.8,6.2,62.7,17.1,88.9,32.4C433.9,300.6,437,312.5,431.7,321.7z"/>
	<path class="st1" d="M450.3,264.5c-4.1,0-8.2-1-11.9-3.2c-120.6-70.5-277.1-28.6-278.6-28.1c-12.6,3.5-25.6-3.9-29.1-16.5
		s3.9-25.6,16.5-29.1c1.8-0.5,45-12.2,105-14.2c35.3-1.2,69.4,1.3,101.1,7.3c40.2,7.6,76.9,21,109,39.8c11.3,6.6,15.1,21.1,8.5,32.4
		C466.4,260.3,458.4,264.5,450.3,264.5z"/>
</g>
</svg>
