<?xml version="1.0" encoding="utf-8"?>
<!-- Generator: Adobe Illustrator 25.2.0, SVG Export Plug-In . SVG Version: 6.00 Build 0)  -->
<svg version="1.1" id="Capa_1" xmlns="http://www.w3.org/2000/svg" xmlns:xlink="http://www.w3.org/1999/xlink" x="0px" y="0px"
	 viewBox="0 0 595.3 585" style="enable-background:new 0 0 595.3 585;" xml:space="preserve">
<style type="text/css">
	.st0{fill:#E52622;}
	.st1{fill:#FEF8F9;}
	.st2{fill:#FFFFFF;}
</style>
<path class="st0" d="M300.1,572.6C145.7,574.6,17,445.5,18.6,288.4C20.2,136.7,146.4,8.3,304.3,10.3
	c152,1.9,276.1,127.2,276.8,281.2C581.9,446.5,453.9,574.3,300.1,572.6z M299.3,458.1c93,0,167.1-74,166.9-166.8
	c-0.2-92.3-74.1-166.1-166.5-166.1c-93.2-0.1-167,73.8-166.9,166.8C132.9,384.4,206.8,458.1,299.3,458.1z"/>
<path class="st1" d="M299.3,458.1c-92.5,0-166.4-73.7-166.5-166.1c-0.1-93,73.8-166.9,166.9-166.8c92.4,0.1,166.3,73.9,166.5,166.1
	C466.4,384.1,392.3,458.2,299.3,458.1z M154,291.7c0,80.3,65.3,145.6,145.6,145.6c79.8,0,145.8-65.9,145.8-145.7
	c0-79.7-66.1-145.7-145.9-145.6C219.2,146,154,211.4,154,291.7z"/>
<path class="st0" d="M154,291.7c0-80.3,65.3-145.7,145.5-145.7c79.8,0,145.9,65.9,145.9,145.6c0,79.8-66,145.7-145.8,145.7
	C219.3,437.3,154,372,154,291.7z M244,376c49.1-28.4,96.8-56,145.9-84.3c-49.6-28.6-97.1-56.1-145.9-84.2
	C244,264.1,244,319.1,244,376z"/>
<path class="st2" d="M244,376c0-56.9,0-111.9,0-168.5c48.7,28.1,96.3,55.6,145.9,84.2C340.8,320,293.1,347.6,244,376z"/>
</svg>
